<svg width="100" height="100" viewBox="0 0 100 100" fill="none" xmlns="http://www.w3.org/2000/svg">
<rect width="100" height="100" rx="50" fill="#45D354"/>
<path d="M59.3623 52.5643C58.7995 52.1891 58.2366 52.0014 57.6738 52.7519L55.4224 55.7537C54.8596 56.129 54.4843 56.3166 53.7339 55.9413C50.9197 54.4404 46.9798 52.7519 43.6027 47.1235C43.4151 46.373 43.7903 45.9978 44.1656 45.6226L45.8541 42.996C46.2293 42.6207 46.0417 42.2455 45.8541 41.8703L43.6027 36.4295C43.0399 34.9285 42.477 35.1162 41.9142 35.1162H40.4133C40.038 35.1162 39.2876 35.3038 38.5371 36.0542C34.4096 40.1817 36.0981 45.9978 39.1 49.7501C39.6628 50.5005 43.4151 57.2546 51.4825 60.8193C57.4862 63.4459 58.7995 63.0707 60.488 62.6955C62.5518 62.5078 64.6155 60.8193 65.5536 59.1308C65.7412 58.5679 66.6793 56.129 65.9288 55.7537M51.1073 73.3895C43.4151 73.3895 37.5991 69.262 37.5991 69.262L28.406 71.7009L30.6573 62.6955C30.6573 62.6955 26.905 56.8794 26.905 49.5625C26.905 36.0542 37.9743 24.7974 51.6701 24.7974C64.4279 24.7974 75.3095 34.7409 75.3095 48.6244C75.3095 62.1326 64.4279 73.2019 51.1073 73.3895ZM21.2766 78.8303L36.8486 74.5152C41.3585 76.824 46.3849 77.9384 51.4481 77.7519C56.5112 77.5655 61.442 76.0844 65.7699 73.45C70.0977 70.8157 73.6781 67.116 76.1693 62.7042C78.6605 58.2924 79.9793 53.3157 79.9999 48.2492C79.9999 32.1143 67.2421 19.1689 51.1073 19.1689C45.9286 19.1822 40.8437 20.5519 36.3591 23.1417C31.8745 25.7315 28.1466 29.4509 25.5466 33.9297C22.9467 38.4084 21.5654 43.4902 21.5404 48.6688C21.5154 53.8474 22.8475 58.9423 25.4041 63.4459" fill="white"/>
</svg>
