<svg width="654" height="130" viewBox="0 0 654 130" fill="none" xmlns="http://www.w3.org/2000/svg">
<path d="M88.2428 61.0354C98.0852 60.3881 108.528 62.2475 119.489 66.6506C119.239 75.601 116.737 84.4284 112.22 92.2502C104.941 104.844 93.1847 113.874 79.1315 117.631C75.3911 118.638 71.5925 119.238 67.7994 119.435C74.1076 115.26 79.4035 109.696 83.3698 103.055L83.7799 102.356C91.0707 89.7298 92.64 74.8477 88.2428 61.0354Z" fill="#FBBE24" stroke="black"/>
<path d="M83.2089 61.5923C87.5938 74.3318 86.2876 88.1966 79.5165 99.8921L79.4696 99.9731C74.5177 108.542 67.1595 115.135 58.1893 119.093C52.2777 118.337 46.5093 116.609 41.0497 113.926C57.2655 100.589 66.1339 84.6873 67.4032 66.563C72.4574 64.0864 77.7425 62.436 83.2089 61.5923Z" fill="#243F8D" stroke="black"/>
<path d="M65.0203 10.5C84.1422 10.5 101.008 20.4011 110.725 35.3477C103.73 31.8748 96.0185 30.0665 88.0027 30.0664C73.4018 30.0664 59.743 36.1531 49.991 46.8643C44.4853 38.653 40.8918 28.689 39.2244 16.9922C47.1092 12.74 55.9879 10.5 65.0203 10.5Z" fill="#FBBE24" stroke="black"/>
<path d="M88.0024 34.9963C97.8878 34.9964 107.307 38.0388 115.231 43.8147C117.537 49.2573 118.99 55.1572 119.393 61.3303C99.7509 53.9129 81.5366 54.1673 65.1978 62.1467C60.5067 59.0042 56.4124 55.2537 52.98 50.9299C61.8305 40.766 74.4781 34.9963 88.0024 34.9963Z" fill="white" stroke="black"/>
<path d="M34.6543 19.761C38.0603 40.4587 47.4063 56.1075 62.4756 66.2542C62.0746 71.8731 60.8668 77.2743 58.8691 82.4436C45.8621 79.9278 34.6723 72.0651 27.8662 60.6477L27.542 60.0959C22.5891 51.486 20.527 41.8206 21.5811 32.0354C25.1901 27.2794 29.5766 23.1274 34.6543 19.761Z" fill="#243F8D" stroke="black"/>
<path d="M16.4766 40.1792C16.9477 47.7388 19.1153 55.0776 22.8779 61.8521L23.2773 62.5591C30.569 75.2053 42.6763 83.9996 56.8447 87.0815C52.4908 95.9402 45.6403 104.045 36.3447 111.338C28.9531 106.789 22.74 100.469 18.2529 92.9878L17.8184 92.2505C10.5383 79.6369 8.61248 64.9427 12.3887 50.8892V50.8872C13.3779 47.1483 14.7574 43.5541 16.4766 40.1792Z" fill="white" stroke="black"/>
<path d="M150.76 17.42C153.64 17.42 155.4 18.82 156.04 21.62L171.76 88.58C172.4 91.38 172.96 92.78 173.44 92.78C173.92 92.78 174.48 91.38 175.12 88.58L190.48 21.62C191.12 18.82 192.88 17.42 195.76 17.42H197.2C200.08 17.42 201.52 18.7 201.52 21.26C201.52 21.9 201.48 22.38 201.4 22.7L183.16 99.5C182.52 102.3 180.76 103.7 177.88 103.7H169.12C166.32 103.7 164.56 102.3 163.84 99.5L145.24 22.7C145.08 21.9 145 21.38 145 21.14C145 20.02 145.4 19.14 146.2 18.5C147 17.78 148.08 17.42 149.44 17.42H150.76Z" fill="black"/>
<path d="M244.324 50.66C245.924 52.34 246.724 54.34 246.724 56.66V91.46C246.724 93.78 245.924 95.78 244.324 97.46L240.484 101.3C238.884 102.9 236.924 103.7 234.604 103.7H219.724C217.404 103.7 215.444 102.9 213.844 101.3L209.884 97.34C208.284 95.74 207.484 93.78 207.484 91.46V56.66C207.484 54.34 208.284 52.38 209.884 50.78L213.844 46.82C215.444 45.22 217.404 44.42 219.724 44.42H234.604C236.924 44.42 238.884 45.22 240.484 46.82L244.324 50.66ZM235.804 60.14C235.804 56.94 234.204 55.34 231.004 55.34H223.204C220.004 55.34 218.404 56.94 218.404 60.14V87.98C218.404 91.18 220.004 92.78 223.204 92.78H231.004C234.204 92.78 235.804 91.18 235.804 87.98V60.14Z" fill="black"/>
<path d="M258.695 22.22C258.695 19.02 260.295 17.42 263.495 17.42H264.695C267.895 17.42 269.495 19.02 269.495 22.22V98.9C269.495 102.1 267.895 103.7 264.695 103.7H263.495C260.295 103.7 258.695 102.1 258.695 98.9V22.22Z" fill="black"/>
<path d="M281.547 22.22C281.547 19.02 283.147 17.42 286.347 17.42H287.547C290.747 17.42 292.347 19.02 292.347 22.22V98.9C292.347 102.1 290.747 103.7 287.547 103.7H286.347C283.147 103.7 281.547 102.1 281.547 98.9V22.22Z" fill="black"/>
<path d="M343.398 76.58C343.398 79.78 341.798 81.38 338.598 81.38H320.118C316.918 81.38 315.318 82.98 315.318 86.18V87.86C315.318 91.06 316.918 92.66 320.118 92.66H338.598C341.798 92.66 343.398 94.26 343.398 97.46V98.78C343.398 101.98 341.798 103.58 338.598 103.58H316.518C314.198 103.58 312.238 102.74 310.638 101.06L306.798 97.22C305.198 95.62 304.398 93.66 304.398 91.34V56.54C304.398 54.22 305.198 52.26 306.798 50.66L310.638 46.82C312.238 45.22 314.198 44.42 316.518 44.42H331.278C333.598 44.42 335.558 45.22 337.158 46.82L340.998 50.66C342.598 52.26 343.398 54.22 343.398 56.54V76.58ZM315.318 66.98C315.318 70.18 316.918 71.78 320.118 71.78H327.678C330.878 71.78 332.478 70.18 332.478 66.98V60.02C332.478 56.82 330.878 55.22 327.678 55.22H320.118C316.918 55.22 315.318 56.82 315.318 60.02V66.98Z" fill="black"/>
<path d="M377.575 73.58C380.775 73.58 382.375 71.98 382.375 68.78V49.22C382.375 46.02 383.975 44.42 387.175 44.42H388.495C391.695 44.42 393.295 46.02 393.295 49.22V102.26C393.295 104.58 392.495 106.54 390.895 108.14L386.935 112.1C385.335 113.7 383.375 114.5 381.055 114.5H360.055C356.855 114.5 355.255 112.9 355.255 109.7V108.38C355.255 105.18 356.855 103.58 360.055 103.58H377.575C380.775 103.58 382.375 101.98 382.375 98.78V89.3C382.375 86.1 380.775 84.5 377.575 84.5H366.415C364.095 84.5 362.135 83.7 360.535 82.1L356.575 78.14C354.975 76.54 354.175 74.58 354.175 72.26V49.22C354.175 46.02 355.775 44.42 358.975 44.42H360.295C363.495 44.42 365.095 46.02 365.095 49.22V68.78C365.095 71.98 366.695 73.58 369.895 73.58H377.575Z" fill="black"/>
<path d="M446.697 45.5C443.497 45.5 441.897 43.9 441.897 40.7V31.22C441.897 28.02 440.297 26.42 437.097 26.42H421.017C417.817 26.42 416.217 28.02 416.217 31.22V50.3C416.217 53.5 417.817 55.1 421.017 55.1H440.697C443.017 55.1 444.977 55.9 446.577 57.5L450.417 61.34C452.017 62.94 452.817 64.9 452.817 67.22V91.46C452.817 93.78 452.017 95.78 450.417 97.46L446.577 101.3C444.977 102.9 443.017 103.7 440.697 103.7H417.537C415.217 103.7 413.257 102.9 411.657 101.3L407.697 97.34C406.097 95.74 405.297 93.78 405.297 91.46V79.7C405.297 76.5 406.897 74.9 410.097 74.9H411.417C414.617 74.9 416.217 76.5 416.217 79.7V87.98C416.217 91.18 417.817 92.78 421.017 92.78H437.097C440.297 92.78 441.897 91.18 441.897 87.98V70.7C441.897 67.5 440.297 65.9 437.097 65.9H417.537C415.137 65.9 413.137 65.1 411.537 63.5L407.697 59.66C406.097 58.06 405.297 56.1 405.297 53.78V27.74C405.297 25.42 406.097 23.42 407.697 21.74L411.537 17.9C413.137 16.3 415.097 15.5 417.417 15.5H440.697C443.017 15.5 444.977 16.34 446.577 18.02L450.417 21.86C452.017 23.46 452.817 25.42 452.817 27.74V40.7C452.817 43.9 451.217 45.5 448.017 45.5H446.697Z" fill="black"/>
<path d="M476.828 98.78C476.828 101.98 475.228 103.58 472.028 103.58H470.828C467.628 103.58 466.028 101.98 466.028 98.78V56.66C466.028 54.26 466.828 52.26 468.428 50.66L472.268 46.82C473.868 45.22 475.828 44.42 478.148 44.42H485.708C486.908 44.42 487.948 44.62 488.828 45.02C489.788 45.42 490.708 46.06 491.588 46.94C492.628 47.98 493.668 48.5 494.708 48.5C495.588 48.5 496.468 48.06 497.348 47.18L497.588 46.94C498.468 46.06 499.348 45.42 500.228 45.02C501.188 44.62 502.268 44.42 503.468 44.42H510.548C511.748 44.42 512.788 44.62 513.668 45.02C514.628 45.42 515.548 46.06 516.428 46.94L520.268 50.78C521.868 52.38 522.668 54.34 522.668 56.66V98.78C522.668 101.98 521.068 103.58 517.868 103.58H516.668C513.468 103.58 511.868 101.98 511.868 98.78V60.14C511.868 56.94 510.268 55.34 507.068 55.34H504.788C501.588 55.34 499.988 56.94 499.988 60.14V98.78C499.988 101.98 498.388 103.58 495.188 103.58H493.988C490.788 103.58 489.188 101.98 489.188 98.78V60.14C489.188 56.94 487.588 55.34 484.388 55.34H481.628C478.428 55.34 476.828 56.94 476.828 60.14V98.78Z" fill="black"/>
<path d="M548.084 103.58C545.764 103.58 543.804 102.78 542.204 101.18L538.244 97.22C536.644 95.62 535.844 93.66 535.844 91.34V77.42C535.844 76.22 536.044 75.18 536.444 74.3C536.844 73.34 537.484 72.42 538.364 71.54L542.204 67.7C543.804 66.1 545.764 65.3 548.084 65.3H559.484C562.684 65.3 564.284 63.7 564.284 60.5V60.14C564.284 56.94 562.684 55.34 559.484 55.34H541.004C537.804 55.34 536.204 53.74 536.204 50.54V49.22C536.204 46.02 537.804 44.42 541.004 44.42H562.964C565.284 44.42 567.244 45.22 568.844 46.82L572.804 50.78C574.404 52.38 575.204 54.34 575.204 56.66V98.78C575.204 101.98 573.604 103.58 570.404 103.58H548.084ZM564.284 79.94C564.284 76.74 562.684 75.14 559.484 75.14H551.564C548.364 75.14 546.764 76.74 546.764 79.94V88.94C546.764 92.14 548.364 93.74 551.564 93.74H559.484C562.684 93.74 564.284 92.14 564.284 88.94V79.94Z" fill="black"/>
<path d="M600.581 98.78C600.581 101.98 598.981 103.58 595.781 103.58H594.461C591.261 103.58 589.661 101.98 589.661 98.78V56.66C589.661 54.34 590.461 52.38 592.061 50.78L596.021 46.82C597.621 45.22 599.581 44.42 601.901 44.42H604.061C607.261 44.42 608.861 46.02 608.861 49.22V50.54C608.861 53.74 607.501 55.34 604.781 55.34C603.421 55.34 602.381 55.78 601.661 56.66C600.941 57.46 600.581 58.62 600.581 60.14V98.78Z" fill="black"/>
<path d="M643.717 92.78C646.917 92.78 648.517 94.38 648.517 97.58V98.9C648.517 102.1 646.917 103.7 643.717 103.7H635.437C633.117 103.7 631.157 102.9 629.557 101.3L625.597 97.34C623.997 95.74 623.197 93.78 623.197 91.46V60.02C623.197 58.5 622.797 57.34 621.997 56.54C621.197 55.66 620.037 55.22 618.517 55.22C615.317 55.22 613.717 53.62 613.717 50.42V49.22C613.717 47.7 614.117 46.54 614.917 45.74C615.797 44.86 616.997 44.42 618.517 44.42C620.037 44.42 621.197 44.02 621.997 43.22C622.797 42.34 623.197 41.14 623.197 39.62V35.3C623.197 32.1 624.797 30.5 627.997 30.5H629.317C632.517 30.5 634.117 32.1 634.117 35.3V39.62C634.117 42.82 635.717 44.42 638.917 44.42H643.717C646.917 44.42 648.517 46.02 648.517 49.22V50.42C648.517 53.62 646.917 55.22 643.717 55.22H638.917C635.717 55.22 634.117 56.82 634.117 60.02V87.98C634.117 91.18 635.717 92.78 638.917 92.78H643.717Z" fill="black"/>
</svg>
