<svg xmlns="http://www.w3.org/2000/svg" version="1.1" xmlns:xlink="http://www.w3.org/1999/xlink" width="51" height="51"><svg width="51" height="51" viewBox="0 0 51 51" fill="none" xmlns="http://www.w3.org/2000/svg">
<path d="M36.1119 23.5549C40.6546 23.2561 45.4743 24.1143 50.5333 26.1465C50.4179 30.2775 49.2631 34.3517 47.1783 37.9617C43.8188 43.7742 38.3928 47.9419 31.9067 49.6759C30.1804 50.1407 28.4272 50.4176 26.6765 50.5086C29.588 48.5816 32.0323 46.0136 33.8629 42.9486L34.0521 42.6259C37.4171 36.7985 38.1414 29.9298 36.1119 23.5549Z" fill="#FBBE24" stroke="black" stroke-width="0.461538"></path>
<path d="M33.7887 23.8125C35.8125 29.6923 35.2096 36.0914 32.0845 41.4893L32.0628 41.5267C29.7773 45.4816 26.3812 48.5245 22.2412 50.3513C19.5127 50.0024 16.8504 49.2048 14.3306 47.9665C21.8148 41.811 25.9079 34.4717 26.4937 26.1067C28.8264 24.9636 31.2657 24.2019 33.7887 23.8125Z" fill="#243F8D" stroke="black" stroke-width="0.461538"></path>
<path d="M25.3938 0.230469C34.2193 0.230469 42.0035 4.80021 46.4883 11.6986C43.2599 10.0958 39.7007 9.26116 36.0011 9.26112C29.2622 9.26112 22.9582 12.0704 18.4572 17.014C15.9161 13.2242 14.2576 8.62539 13.488 3.22687C17.1272 1.26432 21.225 0.230469 25.3938 0.230469Z" fill="#FBBE24" stroke="black" stroke-width="0.461538"></path>
<path d="M36.0011 11.5371C40.5636 11.5372 44.9109 12.9413 48.5681 15.6071C49.6325 18.1191 50.3031 20.8421 50.4891 23.6913C41.4235 20.2678 33.0169 20.3853 25.4759 24.0681C23.3108 22.6177 21.4211 20.8867 19.8369 18.8911C23.9218 14.2 29.7591 11.5371 36.0011 11.5371Z" fill="white" stroke="black" stroke-width="0.461538"></path>
<path d="M11.3787 4.50488C12.9507 14.0577 17.2642 21.2802 24.2193 25.9633C24.0342 28.5566 23.4767 31.0495 22.5547 33.4353C16.5515 32.2742 11.387 28.6452 8.2457 23.3757L8.09607 23.121C5.81011 19.1472 4.85837 14.6862 5.34488 10.17C7.01057 7.97491 9.03511 6.05861 11.3787 4.50488Z" fill="#243F8D" stroke="black" stroke-width="0.461538"></path>
<path d="M2.98903 13.9287C3.20646 17.4178 4.20689 20.8049 5.94347 23.9316L6.12781 24.2579C9.49321 30.0946 15.0812 34.1535 21.6205 35.5759C19.611 39.6646 16.4492 43.4052 12.1589 46.7712C8.74741 44.6717 5.87983 41.7548 3.80886 38.3019L3.60832 37.9616C0.248272 32.14 -0.640568 25.358 1.1023 18.8718V18.8709C1.55886 17.1452 2.19555 15.4864 2.98903 13.9287Z" fill="white" stroke="black" stroke-width="0.461538"></path>
</svg><style>@media (prefers-color-scheme: light) { :root { filter: none; } }
@media (prefers-color-scheme: dark) { :root { filter: none; } }
</style></svg>