<svg xmlns="http://www.w3.org/2000/svg" version="1.1" xmlns:xlink="http://www.w3.org/1999/xlink" width="1000" height="1000"><g clip-path="url(#SvgjsClipPath1077)"><rect width="1000" height="1000" fill="#ffffff"></rect><g transform="matrix(23.68421052631579,0,0,23.68421052631579,49.99999999999994,49.99999999999994)"><svg xmlns="http://www.w3.org/2000/svg" version="1.1" xmlns:xlink="http://www.w3.org/1999/xlink" width="38" height="38"><svg width="38" height="38" viewBox="0 0 38 38" fill="none" xmlns="http://www.w3.org/2000/svg">
<path d="M26.3389 17.1826C29.6525 16.9644 33.168 17.5889 36.8584 19.0713C36.7741 22.0842 35.9323 25.0554 34.4121 27.6885C31.9616 31.9281 28.0043 34.9687 23.2734 36.2334H23.2725C22.0134 36.5722 20.7348 36.7736 19.458 36.8398C21.6556 35.3855 23.4886 33.4305 24.8379 31.0908C27.292 26.8408 27.8186 21.8321 26.3389 17.1826Z" fill="#FBBE24" stroke="black" stroke-width="0.336644"></path>
<path d="M24.6445 17.3696C26.1203 21.658 25.6816 26.3243 23.4023 30.2612L23.3906 30.2808C21.7234 33.1696 19.2445 35.3914 16.2217 36.7251C14.2313 36.4702 12.2893 35.8883 10.4512 34.9849C15.9101 30.4952 18.8957 25.1437 19.3232 19.0425C21.0248 18.2085 22.8042 17.6538 24.6445 17.3696Z" fill="#243F8D" stroke="black" stroke-width="0.336644"></path>
<path d="M18.5225 0.167969C24.9603 0.167969 30.639 3.50181 33.9102 8.53418C31.555 7.36467 28.9587 6.75492 26.2598 6.75488C21.3451 6.75488 16.7477 8.80416 13.4648 12.4092C11.6115 9.64505 10.4003 6.29191 9.83887 2.35449C12.4932 0.923024 15.4818 0.168027 18.5225 0.167969Z" fill="#FBBE24" stroke="black" stroke-width="0.336644"></path>
<path d="M26.2598 8.41455C29.5875 8.41458 32.7584 9.43902 35.4258 11.3833C36.2023 13.2161 36.6916 15.2029 36.8271 17.2817C30.2151 14.7847 24.0841 14.8686 18.584 17.5542C17.0047 16.4963 15.6263 15.2344 14.4707 13.7788C17.4501 10.3575 21.7071 8.41455 26.2598 8.41455Z" fill="white" stroke="black" stroke-width="0.336644"></path>
<path d="M8.30176 3.28479C9.44813 10.2523 12.5927 15.5202 17.665 18.9362C17.5302 20.8279 17.1236 22.646 16.4512 24.3864C12.1432 23.5527 8.42756 20.9777 6.12695 17.234L5.90625 16.8649C4.23852 13.9659 3.5442 10.7113 3.89941 7.41663C5.1146 5.81548 6.5921 4.41804 8.30176 3.28479Z" fill="#243F8D" stroke="black" stroke-width="0.336644"></path>
<path d="M2.18066 10.1598C2.34482 12.7934 3.1202 15.3477 4.46973 17.694C6.9241 21.9507 10.9996 24.909 15.7686 25.9469C14.3029 28.9295 11.9978 31.6583 8.86816 34.1139C6.2989 32.5324 4.15214 30.3157 2.63184 27.6891C0.181157 23.4429 -0.467475 18.4962 0.803711 13.7653V13.7643C1.13675 12.5056 1.60193 11.2959 2.18066 10.1598Z" fill="white" stroke="black" stroke-width="0.336644"></path>
</svg></svg></g></g><defs><clipPath id="SvgjsClipPath1077"><rect width="1000" height="1000" x="0" y="0" rx="350" ry="350"></rect></clipPath></defs></svg>