<svg width="666" height="130" viewBox="0 0 666 130" fill="none" xmlns="http://www.w3.org/2000/svg">
<path d="M88.2428 61.0354C98.0851 60.3881 108.528 62.2475 119.489 66.6506C119.247 75.3177 116.893 83.8692 112.643 91.5042L112.22 92.2502C104.941 104.844 93.1847 113.874 79.1315 117.631C75.3911 118.638 71.5925 119.238 67.7994 119.435C74.1076 115.26 79.4035 109.696 83.3698 103.055L83.7799 102.356C91.0707 89.7298 92.6399 74.8477 88.2428 61.0354Z" fill="#FBBE24" stroke="black"/>
<path d="M83.2087 61.5923C87.5936 74.3318 86.2874 88.1966 79.5164 99.8921L79.4695 99.9731C74.5176 108.542 67.1593 115.135 58.1892 119.093C52.2776 118.337 46.5092 116.609 41.0496 113.926C57.2654 100.589 66.1338 84.6873 67.4031 66.563C72.4573 64.0864 77.7424 62.436 83.2087 61.5923Z" fill="#243F8D" stroke="black"/>
<path d="M65.0203 10.5C84.1419 10.5 101.008 20.4004 110.725 35.3467C103.73 31.8739 96.0184 30.0665 88.0027 30.0664C73.4018 30.0664 59.743 36.1531 49.991 46.8643C44.4853 38.653 40.8918 28.689 39.2244 16.9922C47.1092 12.74 55.9879 10.5 65.0203 10.5Z" fill="#FBBE24" stroke="black"/>
<path d="M88.0024 34.9963C97.8878 34.9964 107.307 38.0388 115.231 43.8147C117.537 49.2573 118.99 55.1572 119.393 61.3303C99.7509 53.9129 81.5366 54.1673 65.1978 62.1467C60.5067 59.0042 56.4124 55.2537 52.98 50.9299C61.8305 40.766 74.4781 34.9963 88.0024 34.9963Z" fill="white" stroke="black"/>
<path d="M34.6543 19.761C38.0603 40.4587 47.4063 56.1075 62.4756 66.2542C62.0746 71.8731 60.8668 77.2743 58.8691 82.4436C45.8621 79.9278 34.6723 72.0651 27.8662 60.6477L27.542 60.0959C22.5891 51.486 20.527 41.8206 21.5811 32.0354C25.1901 27.2794 29.5766 23.1274 34.6543 19.761Z" fill="#243F8D" stroke="black"/>
<path d="M16.4766 40.1792C16.9477 47.7388 19.1153 55.0776 22.8779 61.8521L23.2773 62.5591C30.5688 75.205 42.6757 83.9995 56.8438 87.0815C52.4899 95.9399 45.6399 104.044 36.3447 111.337C28.9533 106.788 22.7399 100.469 18.2529 92.9878L17.8184 92.2505C10.5383 79.6369 8.61248 64.9427 12.3887 50.8892V50.8872C13.3779 47.1483 14.7574 43.5541 16.4766 40.1792Z" fill="white" stroke="black"/>
<path d="M150.76 16.46C153.64 16.46 155.4 17.86 156.04 20.66L171.76 87.62C172.4 90.42 172.96 91.82 173.44 91.82C173.92 91.82 174.48 90.42 175.12 87.62L190.48 20.66C191.12 17.86 192.88 16.46 195.76 16.46H197.2C200.08 16.46 201.52 17.74 201.52 20.3C201.52 20.94 201.48 21.42 201.4 21.74L183.16 98.54C182.52 101.34 180.76 102.74 177.88 102.74H169.12C166.32 102.74 164.56 101.34 163.84 98.54L145.24 21.74C145.08 20.94 145 20.42 145 20.18C145 19.06 145.4 18.18 146.2 17.54C147 16.82 148.08 16.46 149.44 16.46H150.76Z" fill="black"/>
<path d="M244.324 49.7C245.924 51.38 246.724 53.38 246.724 55.7V90.5C246.724 92.82 245.924 94.82 244.324 96.5L240.484 100.34C238.884 101.94 236.924 102.74 234.604 102.74H219.724C217.404 102.74 215.444 101.94 213.844 100.34L209.884 96.38C208.284 94.78 207.484 92.82 207.484 90.5V55.7C207.484 53.38 208.284 51.42 209.884 49.82L213.844 45.86C215.444 44.26 217.404 43.46 219.724 43.46H234.604C236.924 43.46 238.884 44.26 240.484 45.86L244.324 49.7ZM235.804 59.18C235.804 55.98 234.204 54.38 231.004 54.38H223.204C220.004 54.38 218.404 55.98 218.404 59.18V87.02C218.404 90.22 220.004 91.82 223.204 91.82H231.004C234.204 91.82 235.804 90.22 235.804 87.02V59.18Z" fill="black"/>
<path d="M258.695 21.26C258.695 18.06 260.295 16.46 263.495 16.46H264.695C267.895 16.46 269.495 18.06 269.495 21.26V97.94C269.495 101.14 267.895 102.74 264.695 102.74H263.495C260.295 102.74 258.695 101.14 258.695 97.94V21.26Z" fill="black"/>
<path d="M281.547 21.26C281.547 18.06 283.147 16.46 286.347 16.46H287.547C290.747 16.46 292.347 18.06 292.347 21.26V97.94C292.347 101.14 290.747 102.74 287.547 102.74H286.347C283.147 102.74 281.547 101.14 281.547 97.94V21.26Z" fill="black"/>
<path d="M343.398 75.62C343.398 78.82 341.798 80.42 338.598 80.42H320.118C316.918 80.42 315.318 82.02 315.318 85.22V86.9C315.318 90.1 316.918 91.7 320.118 91.7H338.598C341.798 91.7 343.398 93.3 343.398 96.5V97.82C343.398 101.02 341.798 102.62 338.598 102.62H316.518C314.198 102.62 312.238 101.78 310.638 100.1L306.798 96.26C305.198 94.66 304.398 92.7 304.398 90.38V55.58C304.398 53.26 305.198 51.3 306.798 49.7L310.638 45.86C312.238 44.26 314.198 43.46 316.518 43.46H331.278C333.598 43.46 335.558 44.26 337.158 45.86L340.998 49.7C342.598 51.3 343.398 53.26 343.398 55.58V75.62ZM315.318 66.02C315.318 69.22 316.918 70.82 320.118 70.82H327.678C330.878 70.82 332.478 69.22 332.478 66.02V59.06C332.478 55.86 330.878 54.26 327.678 54.26H320.118C316.918 54.26 315.318 55.86 315.318 59.06V66.02Z" fill="black"/>
<path d="M377.575 72.62C380.775 72.62 382.375 71.02 382.375 67.82V48.26C382.375 45.06 383.975 43.46 387.175 43.46H388.495C391.695 43.46 393.295 45.06 393.295 48.26V101.3C393.295 103.62 392.495 105.58 390.895 107.18L386.935 111.14C385.335 112.74 383.375 113.54 381.055 113.54H360.055C356.855 113.54 355.255 111.94 355.255 108.74V107.42C355.255 104.22 356.855 102.62 360.055 102.62H377.575C380.775 102.62 382.375 101.02 382.375 97.82V88.34C382.375 85.14 380.775 83.54 377.575 83.54H366.415C364.095 83.54 362.135 82.74 360.535 81.14L356.575 77.18C354.975 75.58 354.175 73.62 354.175 71.3V48.26C354.175 45.06 355.775 43.46 358.975 43.46H360.295C363.495 43.46 365.095 45.06 365.095 48.26V67.82C365.095 71.02 366.695 72.62 369.895 72.62H377.575Z" fill="black"/>
<path d="M444.657 91.1C443.777 93.82 441.977 95.18 439.257 95.18H434.577C431.697 95.18 429.857 93.86 429.057 91.22L421.497 67.22C421.177 66.34 420.737 65.66 420.177 65.18C419.697 64.7 419.177 64.46 418.617 64.46C417.897 64.46 417.297 64.78 416.817 65.42C416.337 66.06 416.097 66.94 416.097 68.06V97.82C416.097 101.02 414.497 102.62 411.297 102.62H410.097C406.897 102.62 405.297 101.02 405.297 97.82V21.38C405.297 18.18 406.897 16.58 410.097 16.58H411.897C414.697 16.58 416.497 17.9 417.297 20.54L433.617 72.74C433.937 73.86 434.377 74.7 434.937 75.26C435.497 75.82 436.057 76.1 436.617 76.1C437.257 76.1 437.857 75.82 438.417 75.26C438.977 74.62 439.417 73.74 439.737 72.62L455.097 20.66C455.977 17.94 457.777 16.58 460.497 16.58H462.537C465.737 16.58 467.337 18.18 467.337 21.38V97.82C467.337 101.02 465.737 102.62 462.537 102.62H461.337C458.137 102.62 456.537 101.02 456.537 97.82V69.38C456.537 68.26 456.297 67.42 455.817 66.86C455.337 66.22 454.737 65.9 454.017 65.9C452.737 65.9 451.817 66.78 451.257 68.54L444.657 91.1Z" fill="black"/>
<path d="M491.599 102.62C489.279 102.62 487.319 101.82 485.719 100.22L481.759 96.26C480.159 94.66 479.359 92.7 479.359 90.38V76.46C479.359 75.26 479.559 74.22 479.959 73.34C480.359 72.38 480.999 71.46 481.879 70.58L485.719 66.74C487.319 65.14 489.279 64.34 491.599 64.34H502.999C506.199 64.34 507.799 62.74 507.799 59.54V59.18C507.799 55.98 506.199 54.38 502.999 54.38H484.519C481.319 54.38 479.719 52.78 479.719 49.58V48.26C479.719 45.06 481.319 43.46 484.519 43.46H506.479C508.799 43.46 510.759 44.26 512.359 45.86L516.319 49.82C517.919 51.42 518.719 53.38 518.719 55.7V97.82C518.719 101.02 517.119 102.62 513.919 102.62H491.599ZM507.799 78.98C507.799 75.78 506.199 74.18 502.999 74.18H495.079C491.879 74.18 490.279 75.78 490.279 78.98V87.98C490.279 91.18 491.879 92.78 495.079 92.78H502.999C506.199 92.78 507.799 91.18 507.799 87.98V78.98Z" fill="black"/>
<path d="M559.576 91.82C562.776 91.82 564.376 93.42 564.376 96.62V97.94C564.376 101.14 562.776 102.74 559.576 102.74H551.296C548.976 102.74 547.016 101.94 545.416 100.34L541.456 96.38C539.856 94.78 539.056 92.82 539.056 90.5V59.06C539.056 57.54 538.656 56.38 537.856 55.58C537.056 54.7 535.896 54.26 534.376 54.26C531.176 54.26 529.576 52.66 529.576 49.46V48.26C529.576 46.74 529.976 45.58 530.776 44.78C531.656 43.9 532.856 43.46 534.376 43.46C535.896 43.46 537.056 43.06 537.856 42.26C538.656 41.38 539.056 40.18 539.056 38.66V34.34C539.056 31.14 540.656 29.54 543.856 29.54H545.176C548.376 29.54 549.976 31.14 549.976 34.34V38.66C549.976 41.86 551.576 43.46 554.776 43.46H559.576C562.776 43.46 564.376 45.06 564.376 48.26V49.46C564.376 52.66 562.776 54.26 559.576 54.26H554.776C551.576 54.26 549.976 55.86 549.976 59.06V87.02C549.976 90.22 551.576 91.82 554.776 91.82H559.576Z" fill="black"/>
<path d="M579.118 45.86C580.718 44.26 582.678 43.46 584.998 43.46H606.958C610.158 43.46 611.758 45.06 611.758 48.26V49.58C611.758 52.78 610.158 54.38 606.958 54.38H588.478C585.278 54.38 583.678 55.98 583.678 59.18V86.9C583.678 90.1 585.278 91.7 588.478 91.7H606.958C610.158 91.7 611.758 93.3 611.758 96.5V97.82C611.758 101.02 610.158 102.62 606.958 102.62H584.998C582.678 102.62 580.718 101.82 579.118 100.22L575.158 96.26C573.558 94.66 572.758 92.7 572.758 90.38V55.7C572.758 53.38 573.558 51.42 575.158 49.82L579.118 45.86Z" fill="black"/>
<path d="M626.19 102.86C622.99 102.86 621.391 101.26 621.391 98.06V21.62C621.391 18.42 622.99 16.82 626.19 16.82H627.51C630.71 16.82 632.311 18.42 632.311 21.62V38.66C632.311 41.86 633.911 43.46 637.111 43.46H648.151C650.471 43.46 652.431 44.26 654.031 45.86L657.99 49.82C659.59 51.42 660.391 53.38 660.391 55.7V98.06C660.391 101.26 658.791 102.86 655.591 102.86H654.271C651.071 102.86 649.47 101.26 649.47 98.06V59.18C649.47 55.98 647.871 54.38 644.671 54.38H637.111C633.911 54.38 632.311 55.98 632.311 59.18V98.06C632.311 101.26 630.71 102.86 627.51 102.86H626.19Z" fill="black"/>
</svg>
